{"asset":{"version":"2.0","generator":"codex-city-kit-v3"},"scene":0,"scenes":[{"nodes":[0,1,2]}],"nodes":[{"mesh":0,"name":"tower_fat"},{"mesh":1,"name":"tower_medium"},{"mesh":2,"name":"tower_slim"}],"meshes":[{"name":"tower_fat","primitives":[{"attributes":{"POSITION":0,"NORMAL":1,"TEXCOORD_0":2},"indices":3,"material":0}]},{"name":"tower_medium","primitives":[{"attributes":{"POSITION":4,"NORMAL":5,"TEXCOORD_0":6},"indices":7,"material":0}]},{"name":"tower_slim","primitives":[{"attributes":{"POSITION":8,"NORMAL":9,"TEXCOORD_0":10},"indices":11,"material":0}]}],"materials":[{"pbrMetallicRoughness":{"baseColorFactor":[0.08,0.08,0.09,1],"metallicFactor":0.12,"roughnessFactor":0.42}}],"buffers":[{"byteLength":10080,"uri":"data:application/octet-stream;base64,"}],"bufferViews":[{"buffer":0,"byteOffset":0,"byteLength":1152,"target":34962},{"buffer":0,"byteOffset":1152,"byteLength":1152,"target":34962},{"buffer":0,"byteOffset":2304,"byteLength":768,"target":34962},{"buffer":0,"byteOffset":3072,"byteLength":288,"target":34963},{"buffer":0,"byteOffset":3360,"byteLength":1152,"target":34962},{"buffer":0,"byteOffset":4512,"byteLength":1152,"target":34962},{"buffer":0,"byteOffset":5664,"byteLength":768,"target":34962},{"buffer":0,"byteOffset":6432,"byteLength":288,"target":34963},{"buffer":0,"byteOffset":6720,"byteLength":1152,"target":34962},{"buffer":0,"byteOffset":7872,"byteLength":1152,"target":34962},{"buffer":0,"byteOffset":9024,"byteLength":768,"target":34962},{"buffer":0,"byteOffset":9792,"byteLength":288,"target":34963}],"accessors":[{"bufferView":0,"componentType":5126,"count":96,"type":"VEC3","min":[-1.525,0,-1.475],"max":[1.525,7.5,1.475]},{"bufferView":1,"componentType":5126,"count":96,"type":"VEC3"},{"bufferView":2,"componentType":5126,"count":96,"type":"VEC2"},{"bufferView":3,"componentType":5123,"count":144,"type":"SCALAR","min":[0],"max":[95]},{"bufferView":4,"componentType":5126,"count":96,"type":"VEC3","min":[-1.14,0,-1.09],"max":[1.14,7.8,1.09]},{"bufferView":5,"componentType":5126,"count":96,"type":"VEC3"},{"bufferView":6,"componentType":5126,"count":96,"type":"VEC2"},{"bufferView":7,"componentType":5123,"count":144,"type":"SCALAR","min":[0],"max":[95]},{"bufferView":8,"componentType":5126,"count":96,"type":"VEC3","min":[-0.8,0,-0.76],"max":[0.8,9.3,0.76]},{"bufferView":9,"componentType":5126,"count":96,"type":"VEC3"},{"bufferView":10,"componentType":5126,"count":96,"type":"VEC2"},{"bufferView":11,"componentType":5123,"count":144,"type":"SCALAR","min":[0],"max":[95]}]}